<svg xmlns="http://www.w3.org/2000/svg" viewBox="0 0 800 800" fill="none" stroke="#2b2d3e"><circle cx="400" cy="400" r="6" stroke-width="3.88"/><circle cx="400" cy="400" r="13" stroke-width="3.74"/><circle cx="400" cy="400" r="20" stroke-width="3.6"/><circle cx="400" cy="400" r="27" stroke-width="3.47"/><circle cx="400" cy="400" r="34" stroke-width="3.34"/><circle cx="400" cy="400" r="41" stroke-width="3.21"/><circle cx="400" cy="400" r="48" stroke-width="3.08"/><circle cx="400" cy="400" r="55" stroke-width="2.96"/><circle cx="400" cy="400" r="62" stroke-width="2.84"/><circle cx="400" cy="400" r="69" stroke-width="2.73"/><circle cx="400" cy="400" r="76" stroke-width="2.61"/><circle cx="400" cy="400" r="83" stroke-width="2.5"/><circle cx="400" cy="400" r="90" stroke-width="2.4"/><circle cx="400" cy="400" r="97" stroke-width="2.29"/><circle cx="400" cy="400" r="104" stroke-width="2.19"/><circle cx="400" cy="400" r="111" stroke-width="2.1"/><circle cx="400" cy="400" r="118" stroke-width="2"/><circle cx="400" cy="400" r="125" stroke-width="1.91"/><circle cx="400" cy="400" r="132" stroke-width="1.82"/><circle cx="400" cy="400" r="139" stroke-width="1.74"/><circle cx="400" cy="400" r="146" stroke-width="1.66"/><circle cx="400" cy="400" r="153" stroke-width="1.58"/><circle cx="400" cy="400" r="160" stroke-width="1.5"/><circle cx="400" cy="400" r="167" stroke-width="1.43"/><circle cx="400" cy="400" r="174" stroke-width="1.36"/><circle cx="400" cy="400" r="181" stroke-width="1.29"/><circle cx="400" cy="400" r="188" stroke-width="1.23"/><circle cx="400" cy="400" r="195" stroke-width="1.17"/><circle cx="400" cy="400" r="202" stroke-width="1.11"/><circle cx="400" cy="400" r="209" stroke-width="1.06"/><circle cx="400" cy="400" r="216" stroke-width="1.01"/><circle cx="400" cy="400" r="223" stroke-width="0.96"/><circle cx="400" cy="400" r="230" stroke-width="0.91"/><circle cx="400" cy="400" r="237" stroke-width="0.87"/><circle cx="400" cy="400" r="244" stroke-width="0.83"/><circle cx="400" cy="400" r="251" stroke-width="0.79"/><circle cx="400" cy="400" r="258" stroke-width="0.76"/><circle cx="400" cy="400" r="265" stroke-width="0.73"/><circle cx="400" cy="400" r="272" stroke-width="0.71"/><circle cx="400" cy="400" r="279" stroke-width="0.68"/><circle cx="400" cy="400" r="286" stroke-width="0.66"/><circle cx="400" cy="400" r="293" stroke-width="0.64"/><circle cx="400" cy="400" r="300" stroke-width="0.63"/><circle cx="400" cy="400" r="307" stroke-width="0.62"/><circle cx="400" cy="400" r="314" stroke-width="0.61"/><circle cx="400" cy="400" r="321" stroke-width="0.6"/><circle cx="400" cy="400" r="328" stroke-width="0.6"/><circle cx="400" cy="400" r="335" stroke-width="0.6"/><circle cx="400" cy="400" r="342" stroke-width="0.6"/><circle cx="400" cy="400" r="349" stroke-width="0.6"/><circle cx="400" cy="400" r="356" stroke-width="0.6"/><circle cx="400" cy="400" r="363" stroke-width="0.6"/><circle cx="400" cy="400" r="370" stroke-width="0.6"/><circle cx="400" cy="400" r="377" stroke-width="0.6"/><circle cx="400" cy="400" r="384" stroke-width="0.6"/><circle cx="400" cy="400" r="391" stroke-width="0.6"/><circle cx="400" cy="400" r="398" stroke-width="0.6"/><circle cx="400" cy="400" r="405" stroke-width="0.6"/><circle cx="400" cy="400" r="412" stroke-width="0.6"/><circle cx="400" cy="400" r="419" stroke-width="0.6"/><circle cx="400" cy="400" r="426" stroke-width="0.6"/><circle cx="400" cy="400" r="433" stroke-width="0.6"/><circle cx="400" cy="400" r="440" stroke-width="0.6"/><circle cx="400" cy="400" r="447" stroke-width="0.6"/><circle cx="400" cy="400" r="454" stroke-width="0.6"/><circle cx="400" cy="400" r="461" stroke-width="0.6"/><circle cx="400" cy="400" r="468" stroke-width="0.6"/><circle cx="400" cy="400" r="475" stroke-width="0.6"/><circle cx="400" cy="400" r="482" stroke-width="0.6"/><circle cx="400" cy="400" r="489" stroke-width="0.6"/><circle cx="400" cy="400" r="496" stroke-width="0.6"/><circle cx="400" cy="400" r="503" stroke-width="0.6"/><circle cx="400" cy="400" r="510" stroke-width="0.6"/><circle cx="400" cy="400" r="517" stroke-width="0.6"/><circle cx="400" cy="400" r="524" stroke-width="0.6"/><circle cx="400" cy="400" r="531" stroke-width="0.6"/><circle cx="400" cy="400" r="538" stroke-width="0.6"/><circle cx="400" cy="400" r="545" stroke-width="0.6"/><circle cx="400" cy="400" r="552" stroke-width="0.6"/><circle cx="400" cy="400" r="559" stroke-width="0.6"/><circle cx="400" cy="400" r="566" stroke-width="0.6"/><circle cx="400" cy="400" r="573" stroke-width="0.6"/><circle cx="400" cy="400" r="580" stroke-width="0.6"/><circle cx="400" cy="400" r="587" stroke-width="0.6"/><circle cx="400" cy="400" r="594" stroke-width="0.6"/></svg>